<?xml version="1.0" encoding="UTF-8"?>
<svg xmlns="http://www.w3.org/2000/svg" xmlns:xlink="http://www.w3.org/1999/xlink" width="275px" height="63px" viewBox="0 0 277 63" version="1.1">
<g id="surface1">
<path style=" stroke:none;fill-rule:nonzero;fill:rgb(0%,0%,0%);fill-opacity:1;" d="M 3.933594 8.480469 C 7.207031 8.457031 10.480469 8.429688 13.851562 8.40625 C 14.875 8.394531 15.902344 8.382812 16.957031 8.371094 C 17.78125 8.367188 18.605469 8.363281 19.425781 8.363281 C 19.738281 8.359375 19.738281 8.359375 20.058594 8.351562 C 23.910156 8.296875 27.367188 8.789062 30.273438 11.507812 C 32.554688 13.765625 33.285156 16.144531 33.375 19.308594 C 33.347656 22.132812 32.648438 24.589844 30.609375 26.617188 C 28.828125 28.25 28.828125 28.25 27.546875 28.472656 C 27.546875 28.769531 27.546875 29.070312 27.546875 29.378906 C 28.027344 29.40625 28.027344 29.40625 28.511719 29.4375 C 30.160156 29.789062 30.773438 30.574219 31.671875 31.949219 C 32.257812 33.441406 32.203125 34.785156 32.179688 36.371094 C 32.175781 36.691406 32.175781 37.011719 32.175781 37.34375 C 32.167969 38.359375 32.15625 39.378906 32.144531 40.398438 C 32.140625 41.089844 32.136719 41.78125 32.132812 42.472656 C 32.125 44.167969 32.105469 45.859375 32.089844 47.554688 C 29.59375 47.554688 27.09375 47.554688 24.519531 47.554688 C 24.511719 46.675781 24.5 45.796875 24.488281 44.890625 C 24.472656 44.035156 24.457031 43.183594 24.441406 42.332031 C 24.433594 41.738281 24.421875 41.148438 24.417969 40.554688 C 24.40625 39.703125 24.390625 38.851562 24.375 38 C 24.371094 37.734375 24.371094 37.472656 24.367188 37.199219 C 24.332031 35.765625 24.246094 34.78125 23.308594 33.621094 C 22.335938 33.132812 21.265625 33.242188 20.195312 33.222656 C 19.976562 33.214844 19.757812 33.210938 19.53125 33.203125 C 18.707031 33.183594 17.886719 33.164062 17.066406 33.148438 C 15.230469 33.101562 13.394531 33.058594 11.503906 33.015625 C 11.503906 37.8125 11.503906 42.609375 11.503906 47.554688 C 9.007812 47.554688 6.507812 47.554688 3.933594 47.554688 C 3.933594 34.660156 3.933594 21.765625 3.933594 8.480469 Z M 11.503906 15.445312 C 11.503906 18.945312 11.503906 22.445312 11.503906 26.046875 C 13.828125 26.078125 13.828125 26.078125 16.195312 26.105469 C 16.679688 26.113281 17.164062 26.121094 17.660156 26.128906 C 21.113281 26.25 21.113281 26.25 24.078125 24.699219 C 25.503906 23.058594 25.535156 21.886719 25.511719 19.769531 C 25.394531 18.339844 25.152344 17.753906 24.21875 16.660156 C 21.871094 14.996094 19.25 15.3125 16.5 15.371094 C 14.851562 15.394531 13.203125 15.421875 11.503906 15.445312 Z M 11.503906 15.445312 "/>
<path style=" stroke:none;fill-rule:nonzero;fill:rgb(0%,0%,0%);fill-opacity:1;" d="M 133.808594 8.480469 C 155.765625 8.480469 155.765625 8.480469 159.785156 12.230469 C 162.234375 14.816406 162.6875 18.011719 162.679688 21.457031 C 162.570312 25.324219 161.160156 28.183594 158.40625 30.820312 C 156.027344 32.824219 153.269531 33.367188 150.246094 33.347656 C 150.019531 33.347656 149.796875 33.347656 149.5625 33.347656 C 148.726562 33.34375 147.890625 33.339844 147.050781 33.335938 C 145.179688 33.328125 143.304688 33.324219 141.375 33.316406 C 141.375 38.015625 141.375 42.710938 141.375 47.554688 C 138.878906 47.554688 136.382812 47.554688 133.808594 47.554688 C 133.808594 34.660156 133.808594 21.765625 133.808594 8.480469 Z M 141.375 15.445312 C 141.375 19.046875 141.375 22.644531 141.375 26.351562 C 142.9375 26.371094 144.496094 26.386719 146.105469 26.40625 C 146.839844 26.421875 146.839844 26.421875 147.589844 26.433594 C 147.976562 26.433594 148.367188 26.4375 148.765625 26.441406 C 149.164062 26.445312 149.558594 26.449219 149.96875 26.453125 C 151.617188 26.296875 152.5625 25.765625 153.710938 24.589844 C 154.925781 22.871094 155.125 21.558594 154.859375 19.503906 C 154.472656 17.78125 153.382812 16.726562 151.972656 15.75 C 150.910156 15.394531 149.960938 15.410156 148.855469 15.417969 C 148.464844 15.417969 148.074219 15.417969 147.671875 15.417969 C 147.171875 15.421875 146.675781 15.425781 146.164062 15.429688 C 144.582031 15.433594 143.003906 15.441406 141.375 15.445312 Z M 141.375 15.445312 "/>
<path style=" stroke:none;fill-rule:nonzero;fill:rgb(0%,0%,0%);fill-opacity:1;" d="M 252.640625 20.761719 C 254.867188 22.34375 256.167969 24.273438 256.71875 26.957031 C 256.808594 28.011719 256.820312 29.066406 256.832031 30.125 C 256.835938 30.421875 256.84375 30.71875 256.847656 31.027344 C 256.863281 31.972656 256.875 32.917969 256.886719 33.867188 C 256.902344 34.816406 256.914062 35.769531 256.929688 36.722656 C 256.941406 37.3125 256.949219 37.902344 256.953125 38.496094 C 256.957031 38.761719 256.964844 39.027344 256.96875 39.300781 C 256.96875 39.535156 256.972656 39.769531 256.976562 40.011719 C 256.984375 40.613281 256.984375 40.613281 257.324219 41.191406 C 258.429688 41.375 259.535156 41.417969 260.652344 41.496094 C 260.652344 43.496094 260.652344 45.492188 260.652344 47.554688 C 259.535156 47.585938 258.421875 47.609375 257.304688 47.628906 C 256.988281 47.640625 256.675781 47.648438 256.351562 47.660156 C 254.375 47.683594 253.164062 47.542969 251.570312 46.339844 C 250.917969 45.363281 250.902344 45.042969 250.964844 43.917969 C 250.664062 43.917969 250.367188 43.917969 250.058594 43.917969 C 249.953125 44.246094 249.953125 44.246094 249.847656 44.582031 C 249.003906 46.394531 247.535156 47.285156 245.820312 48.160156 C 243.101562 49.105469 239.003906 48.757812 236.433594 47.554688 C 234.359375 46.496094 232.847656 45.164062 231.894531 43.007812 C 231.078125 40.125 231.058594 37.410156 232.535156 34.757812 C 234.007812 32.625 236.0625 31.464844 238.554688 30.894531 C 240.003906 30.652344 241.394531 30.554688 242.867188 30.5625 C 243.0625 30.5625 243.261719 30.5625 243.46875 30.5625 C 244.09375 30.566406 244.71875 30.570312 245.34375 30.574219 C 245.773438 30.574219 246.203125 30.574219 246.628906 30.578125 C 247.671875 30.578125 248.710938 30.585938 249.753906 30.589844 C 249.667969 30.054688 249.582031 29.519531 249.492188 28.984375 C 249.417969 28.535156 249.417969 28.535156 249.34375 28.078125 C 249.0625 26.902344 248.632812 26.417969 247.636719 25.746094 C 245.875 25.101562 244.3125 24.976562 242.488281 25.441406 C 241.148438 26.136719 240.410156 26.804688 239.765625 28.167969 C 239.65625 28.570312 239.554688 28.972656 239.460938 29.378906 C 237.105469 28.765625 234.800781 28.050781 232.5 27.257812 C 232.859375 24.898438 234.238281 22.765625 236.113281 21.296875 C 240.785156 18.316406 247.839844 17.839844 252.640625 20.761719 Z M 239.160156 37.558594 C 238.6875 38.496094 238.769531 39.246094 238.855469 40.285156 C 239.519531 41.351562 240.117188 41.945312 241.277344 42.402344 C 243.578125 42.664062 245.746094 42.648438 247.636719 41.191406 C 248.644531 40.246094 249.375 39.203125 249.753906 37.859375 C 249.761719 37.355469 249.761719 36.851562 249.753906 36.347656 C 248.535156 36.316406 247.320312 36.292969 246.101562 36.28125 C 245.691406 36.273438 245.277344 36.265625 244.863281 36.253906 C 244.265625 36.238281 243.667969 36.234375 243.074219 36.226562 C 242.714844 36.222656 242.355469 36.214844 241.988281 36.207031 C 240.765625 36.375 240.113281 36.792969 239.160156 37.558594 Z M 239.160156 37.558594 "/>
<path style=" stroke:none;fill-rule:nonzero;fill:rgb(0%,0%,0%);fill-opacity:1;" d="M 58.589844 20.761719 C 60.8125 22.34375 62.117188 24.273438 62.664062 26.957031 C 62.757812 28.011719 62.769531 29.066406 62.78125 30.125 C 62.785156 30.421875 62.789062 30.71875 62.796875 31.027344 C 62.8125 31.972656 62.824219 32.917969 62.835938 33.867188 C 62.847656 34.816406 62.863281 35.769531 62.878906 36.722656 C 62.890625 37.3125 62.898438 37.902344 62.902344 38.496094 C 62.90625 38.761719 62.910156 39.027344 62.914062 39.300781 C 62.917969 39.535156 62.921875 39.769531 62.925781 40.011719 C 62.933594 40.613281 62.933594 40.613281 63.269531 41.191406 C 64.375 41.375 65.480469 41.417969 66.601562 41.496094 C 66.601562 43.496094 66.601562 45.492188 66.601562 47.554688 C 65.484375 47.585938 64.367188 47.609375 63.253906 47.628906 C 62.9375 47.640625 62.625 47.648438 62.300781 47.660156 C 60.324219 47.683594 59.113281 47.542969 57.519531 46.339844 C 56.867188 45.363281 56.851562 45.042969 56.914062 43.917969 C 56.613281 43.917969 56.3125 43.917969 56.003906 43.917969 C 55.902344 44.246094 55.902344 44.246094 55.796875 44.582031 C 54.953125 46.394531 53.484375 47.285156 51.765625 48.160156 C 49.050781 49.105469 44.953125 48.757812 42.382812 47.554688 C 40.308594 46.496094 38.796875 45.164062 37.839844 43.007812 C 37.027344 40.125 37.003906 37.410156 38.484375 34.757812 C 39.957031 32.625 42.011719 31.464844 44.5 30.894531 C 45.953125 30.652344 47.34375 30.554688 48.8125 30.5625 C 49.011719 30.5625 49.210938 30.5625 49.417969 30.5625 C 50.042969 30.566406 50.667969 30.570312 51.292969 30.574219 C 51.722656 30.574219 52.148438 30.574219 52.578125 30.578125 C 53.621094 30.578125 54.660156 30.585938 55.703125 30.589844 C 55.617188 30.054688 55.53125 29.519531 55.441406 28.984375 C 55.367188 28.535156 55.367188 28.535156 55.292969 28.078125 C 55.011719 26.902344 54.582031 26.417969 53.582031 25.746094 C 51.824219 25.101562 50.261719 24.976562 48.4375 25.441406 C 47.097656 26.136719 46.359375 26.804688 45.710938 28.167969 C 45.605469 28.570312 45.503906 28.972656 45.410156 29.378906 C 43.054688 28.765625 40.75 28.050781 38.445312 27.257812 C 38.808594 24.898438 40.1875 22.765625 42.0625 21.296875 C 46.734375 18.316406 53.785156 17.839844 58.589844 20.761719 Z M 45.105469 37.558594 C 44.636719 38.496094 44.714844 39.246094 44.804688 40.285156 C 45.46875 41.351562 46.0625 41.945312 47.226562 42.402344 C 49.527344 42.664062 51.695312 42.648438 53.582031 41.191406 C 54.59375 40.246094 55.324219 39.203125 55.703125 37.859375 C 55.710938 37.355469 55.710938 36.851562 55.703125 36.347656 C 54.484375 36.316406 53.269531 36.292969 52.050781 36.28125 C 51.636719 36.273438 51.226562 36.265625 50.8125 36.253906 C 50.214844 36.238281 49.617188 36.234375 49.019531 36.226562 C 48.664062 36.222656 48.304688 36.214844 47.9375 36.207031 C 46.714844 36.375 46.0625 36.792969 45.105469 37.558594 Z M 45.105469 37.558594 "/>
<path style=" stroke:none;fill-rule:nonzero;fill:rgb(0%,0%,0%);fill-opacity:1;" d="M 188.113281 21.484375 C 191.144531 23.886719 192.519531 27.148438 193.144531 30.894531 C 193.144531 32.59375 193.144531 34.292969 193.144531 36.042969 C 186.550781 36.042969 179.957031 36.042969 173.164062 36.042969 C 174.050781 39.042969 174.050781 39.042969 176.261719 40.964844 C 178.40625 41.921875 180.34375 42.164062 182.605469 41.476562 C 184.292969 40.773438 185.199219 39.335938 186.179688 37.859375 C 187.539062 38.363281 188.789062 39.027344 190.058594 39.714844 C 190.269531 39.828125 190.480469 39.941406 190.695312 40.058594 C 191.207031 40.335938 191.722656 40.613281 192.234375 40.890625 C 191.121094 44.003906 188.785156 46.105469 185.878906 47.554688 C 182.253906 49.128906 177.414062 48.972656 173.769531 47.554688 C 173.558594 47.476562 173.351562 47.398438 173.136719 47.320312 C 169.972656 45.953125 168.070312 43.492188 166.617188 40.472656 C 165.761719 38.214844 165.484375 36.082031 165.5 33.675781 C 165.5 33.410156 165.503906 33.148438 165.503906 32.875 C 165.570312 29.414062 166.347656 26.785156 168.320312 23.929688 C 168.492188 23.660156 168.667969 23.390625 168.847656 23.113281 C 173.855469 17.964844 182.289062 17.542969 188.113281 21.484375 Z M 173.808594 28.203125 C 173.355469 28.886719 173.355469 28.886719 173.164062 30.289062 C 177.257812 30.289062 181.355469 30.289062 185.574219 30.289062 C 185.25 28.335938 184.902344 27.601562 183.457031 26.351562 C 180.066406 24.246094 176.246094 25.339844 173.808594 28.203125 Z M 173.808594 28.203125 "/>
<path style=" stroke:none;fill-rule:nonzero;fill:rgb(0%,0%,0%);fill-opacity:1;" d="M 220.996094 20.597656 C 223.910156 22.660156 225.335938 25.015625 226.011719 28.472656 C 226.257812 30.191406 226.214844 31.917969 226.199219 33.652344 C 226.199219 34.050781 226.199219 34.449219 226.199219 34.859375 C 226.195312 35.910156 226.1875 36.960938 226.183594 38.011719 C 226.175781 39.089844 226.171875 40.164062 226.171875 41.242188 C 226.164062 43.34375 226.152344 45.449219 226.140625 47.554688 C 223.742188 47.554688 221.347656 47.554688 218.875 47.554688 C 218.859375 46.402344 218.847656 45.253906 218.832031 44.070312 C 218.8125 42.953125 218.796875 41.832031 218.78125 40.714844 C 218.769531 39.941406 218.757812 39.164062 218.746094 38.390625 C 218.734375 37.273438 218.714844 36.15625 218.699219 35.042969 C 218.695312 34.699219 218.691406 34.355469 218.6875 34 C 218.644531 30.25 218.644531 30.25 217.058594 26.957031 C 215.144531 25.816406 213.378906 25.402344 211.167969 25.921875 C 209.300781 26.539062 208.398438 27.335938 207.390625 29.011719 C 206.824219 30.195312 206.726562 31.253906 206.703125 32.5625 C 206.699219 32.894531 206.691406 33.226562 206.6875 33.570312 C 206.679688 33.929688 206.675781 34.289062 206.671875 34.65625 C 206.664062 35.023438 206.65625 35.394531 206.652344 35.773438 C 206.632812 36.949219 206.613281 38.125 206.597656 39.300781 C 206.582031 40.097656 206.570312 40.894531 206.554688 41.691406 C 206.523438 43.644531 206.492188 45.597656 206.464844 47.554688 C 203.964844 47.554688 201.46875 47.554688 198.894531 47.554688 C 198.894531 38.355469 198.894531 29.160156 198.894531 19.6875 C 201.292969 19.6875 203.691406 19.6875 206.160156 19.6875 C 206.160156 20.886719 206.160156 22.085938 206.160156 23.320312 C 206.460938 23.320312 206.761719 23.320312 207.070312 23.320312 C 207.183594 23.054688 207.183594 23.054688 207.300781 22.785156 C 207.714844 22.035156 208.152344 21.582031 208.789062 21.011719 C 208.984375 20.832031 209.179688 20.65625 209.378906 20.472656 C 212.386719 18.453125 217.96875 18.8125 220.996094 20.597656 Z M 220.996094 20.597656 "/>
<path style=" stroke:none;fill-rule:nonzero;fill:rgb(0%,0%,0%);fill-opacity:1;" d="M 70.535156 19.6875 C 72.933594 19.6875 75.332031 19.6875 77.800781 19.6875 C 77.804688 20.226562 77.808594 20.761719 77.8125 21.316406 C 77.820312 23.101562 77.835938 24.886719 77.859375 26.671875 C 77.871094 27.75 77.878906 28.832031 77.882812 29.914062 C 77.890625 30.957031 77.898438 32.003906 77.914062 33.046875 C 77.921875 33.636719 77.921875 34.226562 77.921875 34.816406 C 77.957031 36.976562 78.125 38.457031 79.316406 40.285156 C 80.933594 41.691406 82.546875 41.699219 84.648438 41.625 C 86.117188 41.4375 87.085938 41.078125 88.09375 39.980469 C 89.375 38.019531 89.933594 36.152344 89.972656 33.820312 C 89.980469 33.503906 89.984375 33.1875 89.992188 32.863281 C 89.996094 32.527344 90.003906 32.191406 90.007812 31.84375 C 90.015625 31.324219 90.015625 31.324219 90.027344 30.792969 C 90.046875 29.683594 90.0625 28.574219 90.082031 27.46875 C 90.09375 26.714844 90.109375 25.964844 90.121094 25.210938 C 90.152344 23.371094 90.183594 21.527344 90.214844 19.6875 C 92.613281 19.6875 95.007812 19.6875 97.480469 19.6875 C 97.480469 28.882812 97.480469 38.078125 97.480469 47.554688 C 95.082031 47.554688 92.683594 47.554688 90.214844 47.554688 C 90.214844 46.453125 90.214844 45.355469 90.214844 44.222656 C 89.914062 44.222656 89.613281 44.222656 89.304688 44.222656 C 89.226562 44.402344 89.144531 44.582031 89.0625 44.769531 C 88.269531 46.226562 86.894531 47.210938 85.371094 47.816406 C 82.492188 48.644531 79.015625 48.535156 76.289062 47.25 C 73.449219 45.566406 71.65625 43.199219 70.675781 40.0625 C 70.496094 39.175781 70.5 38.335938 70.503906 37.429688 C 70.503906 37.035156 70.503906 36.640625 70.503906 36.234375 C 70.503906 35.808594 70.503906 35.378906 70.507812 34.949219 C 70.507812 34.511719 70.507812 34.070312 70.507812 33.632812 C 70.507812 32.476562 70.511719 31.320312 70.515625 30.164062 C 70.519531 28.984375 70.519531 27.804688 70.523438 26.625 C 70.523438 24.3125 70.53125 22 70.535156 19.6875 Z M 70.535156 19.6875 "/>
<path style=" stroke:none;fill-rule:nonzero;fill:rgb(0%,0%,0%);fill-opacity:1;" d="M 104.746094 8.480469 C 107.242188 8.480469 109.742188 8.480469 112.3125 8.480469 C 112.3125 21.375 112.3125 34.269531 112.3125 47.554688 C 109.816406 47.554688 107.320312 47.554688 104.746094 47.554688 C 104.746094 34.660156 104.746094 21.765625 104.746094 8.480469 Z M 104.746094 8.480469 "/>
<path style=" stroke:none;fill-rule:nonzero;fill:rgb(0%,0%,0%);fill-opacity:1;" d="M 212.214844 9.996094 C 212.527344 10.273438 212.839844 10.558594 213.140625 10.847656 C 213.992188 11.601562 213.992188 11.601562 215.109375 11.605469 C 216.5625 11.050781 216.996094 10.136719 217.664062 8.785156 C 218.761719 9.183594 219.671875 9.675781 220.636719 10.335938 C 220.875 10.5 221.113281 10.664062 221.359375 10.832031 C 221.539062 10.953125 221.71875 11.078125 221.902344 11.207031 C 221.445312 13.511719 219.960938 15.46875 218.183594 16.945312 C 216.988281 17.683594 215.707031 17.683594 214.335938 17.566406 C 213.035156 17.105469 211.980469 16.453125 210.964844 15.523438 C 210.152344 14.789062 210.152344 14.789062 209.1875 14.613281 C 207.835938 14.953125 207.238281 15.84375 206.464844 16.960938 C 206.363281 17.160156 206.261719 17.363281 206.160156 17.566406 C 205.0625 17.164062 204.152344 16.675781 203.191406 16.015625 C 202.949219 15.851562 202.710938 15.6875 202.464844 15.519531 C 202.285156 15.394531 202.105469 15.273438 201.921875 15.144531 C 202.5625 12.644531 204.054688 10.550781 206.160156 9.085938 C 208.269531 8.171875 210.394531 8.800781 212.214844 9.996094 Z M 212.214844 9.996094 "/>
<path style=" stroke:none;fill-rule:nonzero;fill:rgb(0%,0%,0%);fill-opacity:1;" d="M 272.855469 38.070312 C 274.203125 38.824219 274.996094 39.714844 275.488281 41.191406 C 275.632812 42.96875 275.746094 44.578125 274.976562 46.207031 C 273.808594 47.441406 272.851562 48.378906 271.101562 48.523438 C 269.414062 48.550781 268.128906 48.570312 266.707031 47.554688 C 265.332031 46.179688 264.605469 44.914062 264.578125 42.9375 C 264.683594 41.351562 265.042969 40.304688 266.101562 39.070312 C 268.203125 37.484375 270.398438 36.925781 272.855469 38.070312 Z M 272.855469 38.070312 "/>
</g>
</svg>
